<svg width="32" height="33" viewBox="0 0 32 33" fill="none" xmlns="http://www.w3.org/2000/svg">
<rect x="0.5" y="1" width="31" height="31" rx="3.5" fill="white"/>
<rect x="0.5" y="1" width="31" height="31" rx="3.5" stroke="#E7EAF0"/>
<path d="M11.1875 18.8125C11.4062 18.8125 11.625 19.0312 11.625 19.25V21C11.625 21.2461 11.4062 21.4375 11.1875 21.4375H9.4375C9.19141 21.4375 9 21.2461 9 21V19.25C9 19.0312 9.19141 18.8125 9.4375 18.8125H11.1875ZM11.1875 10.0625C11.4062 10.0625 11.625 10.2812 11.625 10.5V12.25C11.625 12.4961 11.4062 12.6875 11.1875 12.6875H9.4375C9.19141 12.6875 9 12.4961 9 12.25V10.5C9 10.2812 9.19141 10.0625 9.4375 10.0625H11.1875ZM11.1875 14.4375C11.4062 14.4375 11.625 14.6562 11.625 14.875V16.625C11.625 16.8711 11.4062 17.0625 11.1875 17.0625H9.4375C9.19141 17.0625 9 16.8711 9 16.625V14.875C9 14.6562 9.19141 14.4375 9.4375 14.4375H11.1875ZM22.5625 19.25C22.7812 19.25 23 19.4688 23 19.6875V20.5625C23 20.8086 22.7812 21 22.5625 21H13.8125C13.5664 21 13.375 20.8086 13.375 20.5625V19.6875C13.375 19.4688 13.5664 19.25 13.8125 19.25H22.5625ZM22.5625 10.5C22.7812 10.5 23 10.7188 23 10.9375V11.8125C23 12.0586 22.7812 12.25 22.5625 12.25H13.8125C13.5664 12.25 13.375 12.0586 13.375 11.8125V10.9375C13.375 10.7188 13.5664 10.5 13.8125 10.5H22.5625ZM22.5625 14.875C22.7812 14.875 23 15.0938 23 15.3125V16.1875C23 16.4336 22.7812 16.625 22.5625 16.625H13.8125C13.5664 16.625 13.375 16.4336 13.375 16.1875V15.3125C13.375 15.0938 13.5664 14.875 13.8125 14.875H22.5625Z" fill="#181E25"/>
</svg>
