<svg width="24" height="24" viewBox="0 0 24 24" fill="none" xmlns="http://www.w3.org/2000/svg">
<path d="M4.88818 5V6.16667M4.88818 19V14.3333M4.88818 14.3333L7.0427 13.7947C8.66379 13.3894 10.3764 13.5774 11.871 14.3247L11.9547 14.3666C13.4194 15.0989 15.0945 15.2946 16.6885 14.9195L19.1107 14.3496C18.9637 13.0033 18.8882 11.6355 18.8882 10.25C18.8882 8.876 18.9624 7.51933 19.1071 6.18379L16.6885 6.75287C15.0945 7.12793 13.4194 6.93228 11.9547 6.19994L11.871 6.15805C10.3764 5.41076 8.66379 5.22277 7.0427 5.62804L4.88818 6.16667M4.88818 14.3333V6.16667" stroke="#181E25" stroke-width="1.16667" stroke-linecap="round" stroke-linejoin="round"/>
</svg>
