<svg width="20" height="21" viewBox="0 0 20 21" fill="none" xmlns="http://www.w3.org/2000/svg">
<path d="M0 4.66667C0 2.36548 1.86548 0.499998 4.16667 0.499998H15.8333C18.1345 0.499998 20 2.36548 20 4.66667V16.3333C20 18.6345 18.1345 20.5 15.8333 20.5H4.16667C1.86548 20.5 0 18.6345 0 16.3333V4.66667ZM18.3333 10.5V4.66667C18.3333 3.28595 17.214 2.16666 15.8333 2.16666H4.16667C2.78596 2.16666 1.66667 3.28595 1.66667 4.66667V10.5H5.83333C6.29357 10.5 6.66667 10.8731 6.66667 11.3333C6.66667 11.4203 6.67973 11.6032 6.72043 11.8474C6.78902 12.2589 6.91207 12.6691 7.09952 13.044C7.61407 14.0731 8.50444 14.6667 10 14.6667C11.4956 14.6667 12.3859 14.0731 12.9005 13.044C13.0879 12.6691 13.211 12.2589 13.2796 11.8474C13.3203 11.6032 13.3333 11.4203 13.3333 11.3333C13.3333 10.9242 13.6281 10.584 14.0169 10.5134L14.1667 10.5H18.3333Z" fill="#3A3A3A"/>
</svg>
